<?xml version="1.0" standalone="no"?>
<!DOCTYPE svg PUBLIC "-//W3C//DTD SVG 20010904//EN"
 "http://www.w3.org/TR/2001/REC-SVG-20010904/DTD/svg10.dtd">
<svg version="1.0" xmlns="http://www.w3.org/2000/svg"
 width="89.000000pt" height="109.000000pt" viewBox="0 0 89.000000 109.000000"
 preserveAspectRatio="xMidYMid meet">

<g transform="translate(0.000000,109.000000) scale(0.100000,-0.100000)"
fill="#ffffff" stroke="none">
<path d="M200 1062 c-13 -9 -42 -17 -64 -17 -39 0 -41 -2 -60 -50 -38 -99 -22
-280 38 -410 l23 -50 -33 -59 c-46 -83 -83 -204 -90 -289 -5 -65 -3 -75 18
-100 48 -58 282 -88 531 -69 302 24 338 53 292 232 -9 35 -39 107 -66 162
l-49 99 25 43 c29 50 59 177 49 210 -10 34 -35 56 -64 56 -16 0 -30 7 -34 15
-8 22 -68 45 -96 38 -20 -5 -22 -10 -16 -52 17 -125 17 -148 4 -186 l-13 -40
-158 0 -157 0 -15 32 c-45 93 -41 204 11 321 28 63 30 94 8 116 -20 20 -52 20
-84 -2z m60 -36 c0 -7 -12 -39 -26 -70 -39 -86 -50 -189 -29 -280 9 -41 25
-86 36 -101 21 -25 23 -25 109 -19 88 7 88 7 92 -17 2 -18 14 -28 45 -39 32
-10 45 -22 53 -44 13 -39 13 -46 -5 -46 -21 0 -20 -56 3 -100 20 -40 74 -80
108 -80 14 0 41 -16 65 -39 46 -46 44 -61 -15 -106 -54 -41 -72 -35 -91 33
-25 87 -50 113 -113 120 -112 10 -148 -16 -174 -127 l-12 -52 -45 6 c-76 10
-154 27 -178 38 -33 15 -37 43 -19 128 20 96 38 148 83 236 l37 72 -26 48
c-43 81 -62 159 -62 263 0 72 4 103 17 128 15 28 20 31 38 21 17 -9 27 -6 57
15 42 29 52 32 52 12z m427 -216 c18 -21 36 -30 56 -30 l29 0 -4 -62 c-4 -58
-18 -99 -63 -179 -14 -25 -12 -31 30 -105 56 -97 97 -224 93 -284 -4 -59 -22
-61 -38 -5 -9 33 -21 50 -41 61 -30 15 -36 28 -19 39 21 13 9 27 -20 23 -20
-3 -30 0 -30 9 0 7 5 13 11 13 15 0 39 64 32 88 -6 23 -15 28 -84 37 -42 6
-49 11 -64 45 -21 46 -10 93 21 98 48 7 73 128 50 240 -10 51 2 55 41 12z
m-148 -256 c2 -2 1 -10 -2 -17 -6 -16 -53 -12 -63 5 -13 21 43 32 65 12z m106
-274 c3 -5 2 -10 -4 -10 -5 0 -13 5 -16 10 -3 6 -2 10 4 10 5 0 13 -4 16 -10z
m-121 -100 c19 -7 29 -22 40 -61 9 -29 14 -54 12 -56 -2 -2 -49 -6 -104 -10
-92 -5 -102 -4 -108 12 -9 22 12 107 29 117 17 11 101 10 131 -2z m246 -90 c0
-5 -7 -10 -16 -10 -8 0 -12 5 -9 10 3 6 10 10 16 10 5 0 9 -4 9 -10z"/>
<path d="M190 406 c-29 -10 -36 -18 -38 -44 -5 -48 34 -82 95 -83 l48 -1 -35
-15 c-23 -10 -50 -13 -77 -9 -34 4 -43 3 -43 -9 0 -36 98 -41 162 -9 62 32 91
130 50 167 -22 20 -110 22 -162 3z"/>
</g>
</svg>
